<svg width="36" height="36" xmlns="http://www.w3.org/2000/svg"><g fill="none"><path d="M4 0h28a4 4 0 014 4v28a4 4 0 01-4 4H4a4 4 0 01-4-4V4a4 4 0 014-4z" fill="#E55B00"/><path d="M25.846 17.661l1.084 1.092-7.749 7.694-.352-.355.354.358h-1.082v-1.091l-.003-.004 7.748-7.694zM23.824 10c.85 0 1.538.689 1.538 1.539v4.616l-1.538 1.54v-6.156H12.539v13.336h4.103l-1.538 1.54h-2.565A1.54 1.54 0 0111 24.875V11.54c0-.85.689-1.539 1.539-1.539h11.285zm-5.13 6.155v1.54h-4.103v-1.54h4.103zm3.078-3.077v1.538H14.59v-1.538h7.18z" fill="#FFF"/></g></svg>